<svg width="374" height="305" viewBox="0 0 374 305" fill="none" xmlns="http://www.w3.org/2000/svg">
<path d="M364.952 62.3298C359.149 50.1326 350.781 39.0796 340.318 29.7895C329.847 20.4718 317.502 13.0671 303.953 7.97814C289.904 2.68025 274.835 -0.03151 259.622 0.000276233C238.279 0.000276233 217.456 5.30575 199.36 15.3272C195.03 17.7245 190.918 20.3576 187.021 23.2265C183.125 20.3576 179.012 17.7245 174.683 15.3272C156.587 5.30575 135.764 0.000276233 114.421 0.000276233C99.0521 0.000276233 84.1596 2.67267 70.0897 7.97814C56.4961 13.0871 44.2444 20.4362 33.7245 29.7895C23.2477 39.0691 14.8785 50.1247 9.09132 62.3298C3.07373 75.0236 0 88.5035 0 102.376C0 115.463 2.94386 129.1 8.78828 142.973C13.6803 154.566 20.6936 166.592 29.655 178.736C43.8548 197.953 63.3795 217.996 87.623 238.314C127.798 271.994 167.583 295.26 169.272 296.203L179.532 302.177C184.078 304.81 189.922 304.81 194.468 302.177L204.728 296.203C206.416 295.22 246.158 271.994 286.377 238.314C310.62 217.996 330.145 197.953 344.345 178.736C353.306 166.592 360.363 154.566 365.211 142.973C371.056 129.1 374 115.463 374 102.376C374.043 88.5035 370.969 75.0236 364.952 62.3298Z" fill="#E84C3C"/>
</svg>
