<svg width="403" height="394" viewBox="0 0 403 394" fill="none" xmlns="http://www.w3.org/2000/svg">
<path d="M393.708 120.114C398.691 120.617 402.488 124.795 402.583 129.803C403.584 182.765 402.784 238.284 400.182 287.154C399.768 295.159 394.93 301.775 388.473 303.119C357.647 309.709 321.528 309.709 290.703 303.119C284.245 301.775 279.407 295.159 278.994 287.154C276.392 238.284 275.591 182.766 276.592 129.804C276.687 124.762 280.539 120.611 285.557 120.106C320.578 116.585 358.69 116.588 393.708 120.114V120.114Z" fill="#C83C50"/>
<path d="M402.414 227.019C401.834 252.768 380.384 272.499 354.673 270.98C354.376 270.962 354.079 270.944 353.782 270.926C330.235 269.507 311.772 250.106 311.528 226.517C311.156 190.374 311.362 153.778 312.146 118.134C312.146 118.134 312.147 118.133 312.148 118.133C339.33 116.804 367.387 117.464 393.698 120.113C398.685 120.616 402.487 124.792 402.582 129.803C403.19 161.953 403.134 195.044 402.414 227.019V227.019Z" fill="#F44545"/>
<path d="M330.783 126.963C318.833 127.171 306.943 127.804 295.357 128.86C285.318 129.776 276.734 121.693 277.008 111.617C277.474 94.4068 278.136 77.5897 278.993 61.4941C279.406 53.489 284.244 46.8733 290.702 45.5288C299.276 43.6958 308.261 42.3728 317.427 41.5599C324.613 40.9221 330.783 46.6394 330.783 53.854V126.963Z" fill="#FF3C7D"/>
<path d="M314.809 41.8063C339.37 39.3571 365.403 40.5972 388.472 45.5284C394.929 46.8729 399.767 53.4886 400.181 61.4937C401.041 77.654 401.705 94.5419 402.171 111.823C402.44 121.791 393.948 129.788 384.019 128.878C360.572 126.728 335.876 126.317 311.951 127.645C312.513 98.2122 313.465 69.3383 314.809 41.8063V41.8063Z" fill="#FF5E93"/>
<path d="M398.35 109.39C399.674 109.62 400.941 110.002 402.136 110.519C402.322 117.286 402.479 124.116 402.605 130.988C362.472 125.519 316.701 125.519 276.568 130.988C276.694 124.117 276.851 117.287 277.037 110.519C278.231 110.002 279.499 109.62 280.822 109.39C317.878 102.8 361.295 102.8 398.35 109.39Z" fill="#FFA2C1"/>
<path d="M373.231 176.022C373.026 176.238 372.816 176.453 372.604 176.666C365.421 183.85 355.712 186.969 346.337 186.024C347.281 195.399 344.162 205.108 336.98 212.291C336.766 212.504 336.551 212.713 336.335 212.918C321.225 227.228 299.053 205.056 313.363 189.946C313.568 189.729 313.778 189.515 313.99 189.301C321.173 182.118 330.882 178.999 340.257 179.944C339.312 170.568 342.432 160.86 349.615 153.676C349.828 153.463 350.043 153.254 350.259 153.049C365.369 138.739 387.541 160.912 373.231 176.022Z" fill="#FF5E93"/>
<path d="M353.514 175.703C352.206 177.681 350.688 179.507 348.992 181.15C347.96 182.149 347.96 183.819 348.992 184.818C350.688 186.462 352.205 188.288 353.513 190.265C355.083 192.641 352.287 195.437 349.912 193.866C347.934 192.559 346.108 191.041 344.465 189.345C343.466 188.313 341.796 188.313 340.797 189.345C339.154 191.041 337.327 192.559 335.349 193.867C332.974 195.437 330.178 192.641 331.748 190.266C333.056 188.288 334.574 186.462 336.27 184.819C337.302 183.82 337.302 182.15 336.27 181.151C334.574 179.508 333.057 177.681 331.748 175.704C330.178 173.329 332.974 170.532 335.349 172.103C337.327 173.411 339.153 174.929 340.796 176.625C341.795 177.657 343.465 177.657 344.464 176.625C346.108 174.929 347.934 173.411 349.912 172.103C352.288 170.531 355.084 173.327 353.514 175.703V175.703Z" fill="#FF3C7D"/>
<path d="M402.605 130.988C372.195 126.844 338.55 125.84 306.573 127.975C300.238 128.398 294.867 123.39 294.867 117.041C294.867 111.391 299.16 106.672 304.783 106.121C311.694 105.445 318.719 104.973 325.791 104.708C325.943 112.364 332.197 118.523 339.889 118.523C347.574 118.523 353.823 112.375 353.987 104.73C369.229 105.329 384.25 106.882 398.35 109.389C399.674 109.619 400.941 110.001 402.135 110.518C402.322 117.286 402.479 124.116 402.605 130.988V130.988Z" fill="#FFAEE0"/>
<path d="M207.448 83.7748C206.58 90.148 201.175 94.9263 194.743 94.9289C194.651 94.9289 194.559 94.9289 194.465 94.9289C188.034 94.9272 182.63 90.148 181.761 83.7748C180.366 73.5414 179.625 62.8222 179.625 51.7794C179.625 40.7366 180.367 30.0165 181.761 19.784C182.629 13.4108 188.034 8.63247 194.465 8.62988H194.743C201.175 8.63161 206.579 13.4108 207.448 19.784C208.843 30.0174 209.583 40.7366 209.583 51.7794C209.583 62.8222 208.842 73.5423 207.448 83.7748Z" fill="#0A3575"/>
<path d="M228.417 2.29814C233.712 2.83665 237.751 7.28882 237.754 12.6109V12.8465C237.751 18.1694 233.712 22.6207 228.417 23.1592C213.712 24.6556 198.172 25.4574 182.102 25.4574C166.032 25.4574 150.492 24.6556 135.787 23.1592C130.492 22.6207 126.453 18.1685 126.45 12.8465C126.45 12.7679 126.45 12.6894 126.45 12.6109C126.453 7.28796 130.492 2.83665 135.787 2.29814C150.493 0.801718 166.032 0 182.103 0C198.174 0 213.712 0.801718 228.417 2.29814V2.29814ZM226.6 53.7307C232.973 54.5988 237.751 60.0037 237.754 66.4356V66.7135C237.752 73.1453 232.973 78.5494 226.6 79.4184C216.366 80.813 205.647 81.5535 194.604 81.5535C183.561 81.5535 172.841 80.8122 162.609 79.4184C156.236 78.5503 151.457 73.1453 151.455 66.7135C151.455 66.6211 151.455 66.5288 151.455 66.4356C151.456 60.0037 156.236 54.5997 162.609 53.7307C172.842 52.3361 183.561 51.5956 194.604 51.5956C205.647 51.5956 216.367 52.3361 226.6 53.7307Z" fill="#0A4499"/>
<path d="M135.788 2.29821C136.324 2.24384 136.861 2.19034 137.398 2.1377C137.936 2.19034 138.473 2.24384 139.009 2.29821C144.304 2.83672 148.343 7.28889 148.345 12.611V12.8465C148.343 18.1695 144.304 22.6208 139.009 23.1593C138.473 23.2137 137.936 23.2672 137.398 23.3198C136.861 23.2672 136.324 23.2137 135.788 23.1593C130.493 22.6208 126.454 18.1695 126.451 12.8465V12.611C126.454 7.28889 130.493 2.83672 135.788 2.29821Z" fill="#0A3575"/>
<path d="M318.443 238.185C318.443 306.342 263.192 361.593 195.036 361.593C126.879 361.593 71.6279 306.342 71.6279 238.185C71.6279 192.946 95.9712 153.391 132.274 131.907C132.722 117.631 133.303 103.637 134.01 89.9735C134.423 81.9684 139.261 75.3527 145.719 74.0082C161.266 70.7702 177.662 69.0391 194.604 69.0391C211.546 69.0391 227.942 70.7702 243.489 74.0073C249.947 75.3518 254.785 81.9675 255.198 89.9726C255.896 103.472 256.472 117.294 256.918 131.391C293.706 152.754 318.443 192.581 318.443 238.185Z" fill="#FFF5F5"/>
<path d="M144.183 350.661C101.395 331.286 71.6279 288.212 71.6279 238.185C71.6279 192.946 95.9712 153.391 132.274 131.907C132.722 117.631 133.303 103.637 134.01 89.9735C134.423 81.9684 139.261 75.3527 145.719 74.0082C158.637 71.3182 172.142 69.669 186.059 69.1875C181.546 72.4513 178.488 78.3067 178.141 85.0148C177.331 100.666 176.666 138.497 176.152 154.848C128.843 170.58 106.689 202.959 106.689 254.777C106.689 291.781 120.909 325.466 144.183 350.661V350.661Z" fill="#D5F1FE"/>
<path d="M280.472 238.186C280.472 285.37 242.221 323.622 195.036 323.622C147.851 323.622 109.6 285.37 109.6 238.186C109.6 191.001 147.851 152.75 195.036 152.75C242.221 152.75 280.472 191.001 280.472 238.186Z" fill="#B4E7FD"/>
<path d="M270.447 278.375C256.068 305.3 227.692 323.622 195.036 323.622C147.851 323.622 109.6 285.37 109.6 238.186C109.6 205.53 127.921 177.153 154.845 162.774C148.448 174.753 144.821 188.435 144.821 202.964C144.821 250.149 183.072 288.4 230.257 288.4C244.786 288.4 258.468 284.772 270.447 278.375Z" fill="#93DCFC"/>
<path d="M195.036 327.937C145.547 327.937 105.285 287.675 105.285 238.186C105.285 188.697 145.547 148.435 195.036 148.435C244.525 148.435 284.787 188.697 284.787 238.186C284.787 287.675 244.525 327.937 195.036 327.937ZM195.036 157.064C150.305 157.064 113.915 193.455 113.915 238.186C113.915 282.916 150.305 319.307 195.036 319.307C239.766 319.307 276.157 282.916 276.157 238.186C276.157 193.455 239.766 157.064 195.036 157.064ZM213.762 207.325C213.762 207.626 213.757 207.926 213.75 208.224C213.184 229.028 181.828 229.028 181.262 208.224C181.255 207.926 181.25 207.625 181.25 207.325C181.25 195.292 187.788 184.785 197.506 179.163C207.224 184.785 213.762 195.291 213.762 207.325ZM238.952 244.506C238.952 242.123 237.02 240.191 234.637 240.191H160.375C157.992 240.191 156.06 242.123 156.06 244.506C156.06 246.889 157.992 248.821 160.375 248.821H234.637C237.02 248.821 238.952 246.889 238.952 244.506ZM218.246 262.869C218.246 260.486 216.314 258.554 213.931 258.554H181.081C178.698 258.554 176.766 260.486 176.766 262.869C176.766 265.252 178.698 267.184 181.081 267.184H213.932C216.314 267.184 218.246 265.252 218.246 262.869Z" fill="#40C1FA"/>
<path d="M148.344 296.923C147.838 299.326 147.297 301.752 146.723 304.197C145.674 306.48 144.609 308.726 143.532 310.933C130.035 308.087 115.811 304.174 101.307 299.193C100.253 298.83 99.2041 298.465 98.1599 298.096C94.871 306.908 91.3448 315.347 87.6469 323.328C86.0417 326.794 82.2144 328.661 78.494 327.798C78.4699 327.792 78.4448 327.786 78.4207 327.78C77.8632 327.651 77.3126 327.462 76.7922 327.221C76.7698 327.21 76.7465 327.2 76.724 327.189C73.2591 325.584 71.3864 321.76 72.2494 318.04C74.2844 309.26 76.7568 300.21 79.6677 291.008C73.109 288.29 78.8703 271.517 85.7147 273.402C89.0726 264.354 92.6816 255.695 96.471 247.517C98.0762 244.052 101.904 242.185 105.623 243.048C105.647 243.054 105.672 243.059 105.696 243.065C106.254 243.194 106.804 243.383 107.324 243.624C107.346 243.634 107.37 243.645 107.392 243.655C110.857 245.26 112.73 249.085 111.867 252.805C109.88 261.374 107.478 270.2 104.658 279.173C105.709 279.525 106.761 279.88 107.816 280.242C122.32 285.223 135.947 290.876 148.344 296.923Z" fill="#0A3575"/>
<path d="M67.9769 177.053C74.4165 178.575 80.9226 180.177 87.4891 181.857C93.7018 184.566 99.8195 187.3 105.835 190.055C100.537 219.558 92.5393 250.501 81.7597 281.886C70.9801 313.271 58.2786 342.598 44.3309 369.13C37.8913 367.608 31.3852 366.006 24.8187 364.326C18.6061 361.617 12.4883 358.883 6.47241 356.128C11.7712 326.625 19.7685 295.682 30.5481 264.297C41.3277 232.912 54.0301 203.585 67.9769 177.053V177.053Z" fill="#0956C6"/>
<path d="M67.977 177.053C71.1226 177.797 74.2855 178.56 77.4621 179.341C80.4489 180.676 83.4124 182.017 86.3518 183.363C81.053 212.867 73.0557 243.809 62.2761 275.194C51.4965 306.579 38.795 335.905 24.8473 362.438C21.7017 361.694 18.5397 360.931 15.3622 360.149C12.3762 358.814 9.41187 357.473 6.47339 356.127C11.7722 326.623 19.7695 295.681 30.5491 264.296C41.3287 232.911 54.0302 203.585 67.977 177.053V177.053Z" fill="#2476ED"/>
<path d="M87.8809 283.987C77.2273 315.007 64.5025 344.667 50.0603 372.141C48.6864 374.756 45.716 376.108 42.8423 375.428C36.394 373.903 29.7904 372.277 23.2161 370.595C22.8796 370.509 22.5508 370.397 22.2332 370.258C16.0162 367.547 9.807 364.773 3.77728 362.011C1.09252 360.781 -0.420303 357.89 0.102669 354.983C5.58956 324.433 13.7733 293.215 24.4278 262.194C35.0823 231.174 47.8062 201.515 62.2483 174.041C63.6222 171.426 66.5926 170.074 69.4664 170.754C75.9207 172.279 82.5234 173.905 89.0943 175.586C89.43 175.672 89.7588 175.785 90.0772 175.924C96.2985 178.636 102.507 181.411 108.531 184.17C111.216 185.4 112.729 188.292 112.206 191.199C106.719 221.749 98.5345 252.968 87.8809 283.987V283.987ZM40.9204 361.66C54.1034 336.026 65.7728 308.508 75.6385 279.783C85.5042 251.058 93.2055 222.177 98.5552 193.852C94.2152 191.89 89.8028 189.929 85.3808 187.998C80.7077 186.804 76.0225 185.64 71.3891 184.522C58.2061 210.156 46.5367 237.674 36.671 266.399C26.8053 295.123 19.104 324.004 13.7543 352.329C18.0977 354.294 22.5094 356.254 26.9296 358.184C31.6044 359.377 36.2896 360.542 40.9204 361.66V361.66Z" fill="#0A4499"/>
<path d="M359.214 361.748C359.2 361.813 359.185 361.878 359.171 361.944C357.123 371.35 353.983 380.494 349.819 389.173C349.791 389.234 349.761 389.294 349.733 389.354C348.349 392.236 345.178 393.812 342.054 393.132C307.165 385.546 270.549 375.352 233.25 362.542C222.703 358.919 241.203 308.021 250.838 311.331C288.138 324.141 323.29 338.596 355.478 354.049C358.359 355.432 359.894 358.624 359.214 361.748V361.748Z" fill="#0A4499"/>
<path d="M252.922 312.049C267.834 317.206 275.088 334.098 268.546 348.457C268.472 348.62 268.398 348.782 268.323 348.945C262.579 361.471 248.332 367.689 235.289 363.24C234.609 363.008 233.929 362.776 233.249 362.542C195.95 349.732 160.797 335.277 128.61 319.824C125.728 318.44 124.195 315.249 124.874 312.126C124.888 312.06 124.902 311.995 124.916 311.93C126.964 302.523 130.104 293.38 134.268 284.7C134.298 284.64 134.326 284.58 134.355 284.519C135.739 281.637 138.91 280.061 142.034 280.741C176.923 288.327 213.539 298.521 250.838 311.332C251.533 311.57 252.228 311.809 252.922 312.049Z" fill="#0956C6"/>
<path d="M283.045 350.03C283.039 350.054 283.034 350.079 283.028 350.103C282.899 350.661 282.71 351.212 282.469 351.732C282.459 351.754 282.448 351.778 282.437 351.8C280.832 355.265 277.008 357.138 273.288 356.275C261.709 353.591 249.662 350.147 237.416 345.941C225.17 341.735 213.549 337.05 202.765 332.053C199.3 330.448 197.433 326.621 198.295 322.9C198.301 322.876 198.307 322.851 198.313 322.827C198.442 322.269 198.631 321.719 198.872 321.198C198.882 321.176 198.893 321.153 198.904 321.13C200.509 317.665 204.333 315.793 208.053 316.656C219.632 319.34 231.678 322.784 243.925 326.989C256.171 331.195 267.792 335.881 278.576 340.877C282.042 342.482 283.908 346.31 283.045 350.03Z" fill="#2476ED"/>
</svg>
