<svg id="Capa_1" enable-background="new 0 0 512 512" height="512" viewBox="0 0 512 512" width="512" xmlns="http://www.w3.org/2000/svg"><g><path d="m19.47 354.1c-12.368-29.786-19.273-62.413-19.466-96.63-.796-141.608 114.387-257.47 255.997-257.47 141.384 0 255.999 114.616 255.999 256 0 30.206-5.231 59.189-14.837 86.094-2.563 7.178-9.314 12.006-16.936 12.006z" fill="#ffc14f"/><path d="m46.872 368.2c-10.935-26.336-17.04-55.182-17.21-85.435-.705-125.203 101.134-227.643 226.339-227.642 125.005 0 226.341 101.337 226.341 226.342 0 26.706-4.625 52.332-13.118 76.12-2.266 6.346-8.235 10.615-14.974 10.615z" fill="#ffcd71"/><path d="m497.486 341.183c-35.101 99.508-129.966 170.817-241.486 170.817-103.941 0-193.413-61.946-233.515-150.933-4.204-9.33 2.714-19.885 12.947-19.885h462.054z" fill="#199a8e"/><path d="m456.213 153.184c5.775.582 10.175 5.424 10.285 11.227 1.159 61.37.232 125.703-2.783 182.332-.479 9.276-6.085 16.942-13.568 18.5-35.72 7.636-77.573 7.636-113.292 0-7.483-1.558-13.089-9.224-13.568-18.5-3.015-56.629-3.943-120.961-2.783-182.331.11-5.842 4.574-10.653 10.388-11.238 40.581-4.08 84.744-4.076 125.321.01z" fill="#c83c50"/><path d="m466.302 277.061c-.672 29.837-25.528 52.701-55.321 50.94-.344-.02-.688-.041-1.032-.062-27.286-1.644-48.68-24.125-48.962-51.459-.432-41.882-.193-84.288.716-125.59 0-.001.001-.002.002-.002 31.497-1.54 64.009-.775 94.497 2.295 5.779.582 10.184 5.421 10.294 11.228.705 37.254.64 75.599-.194 112.65z" fill="#f44545"/><path d="m383.298 161.12c-13.847.241-27.624.974-41.05 2.198-11.632 1.061-21.579-8.305-21.262-19.981.54-19.942 1.307-39.429 2.3-58.08.479-9.276 6.085-16.942 13.568-18.5 9.936-2.124 20.347-3.657 30.968-4.599 8.327-.739 15.476 5.886 15.476 14.246z" fill="#ff3c7d"/><path d="m364.789 62.443c28.46-2.838 58.626-1.401 85.357 4.313 7.483 1.558 13.089 9.224 13.568 18.5.997 18.726 1.766 38.295 2.306 58.32.312 11.55-9.528 20.817-21.034 19.762-27.169-2.491-55.786-2.967-83.509-1.428.651-34.106 1.754-67.564 3.312-99.467z" fill="#ff5e93"/><path d="m461.593 140.757c1.534.266 3.002.709 4.386 1.308.216 7.842.398 15.756.544 23.719-46.505-6.337-99.542-6.337-146.047 0 .146-7.962.328-15.876.544-23.719 1.383-.599 2.852-1.042 4.386-1.308 42.939-7.636 93.249-7.636 136.187 0z" fill="#ffa2c1"/><path d="m432.486 217.967c-.238.251-.481.5-.727.747-8.323 8.324-19.573 11.938-30.437 10.843 1.094 10.864-2.52 22.114-10.843 30.437-.247.247-.496.489-.747.727-17.509 16.582-43.201-9.11-26.619-26.619.238-.251.481-.5.727-.747 8.323-8.324 19.573-11.938 30.437-10.843-1.095-10.865 2.52-22.114 10.843-30.438.247-.247.496-.489.747-.727 17.509-16.582 43.201 9.111 26.619 26.62z" fill="#ff5e93"/><path d="m405.867 260.722c-.251-.238-.5-.48-.747-.727-8.323-8.324-11.938-19.573-10.843-30.437-10.865 1.095-22.114-2.52-30.437-10.843-.247-.247-.489-.496-.727-.747-16.582-17.509 9.11-43.202 26.619-26.619.251.238.5.48.747.727 8.323 8.324 11.938 19.573 10.843 30.438 10.865-1.095 22.114 2.52 30.437 10.843.247.247.489.496.727.747 16.582 17.507-9.11 43.2-26.619 26.618z" fill="#ffa2c1"/><path d="m409.638 217.597c-1.515 2.292-3.274 4.408-5.24 6.312-1.196 1.158-1.196 3.093 0 4.251 1.966 1.904 3.724 4.02 5.239 6.311 1.82 2.753-1.42 5.993-4.173 4.173-2.291-1.515-4.407-3.274-6.311-5.239-1.158-1.196-3.093-1.196-4.251 0-1.904 1.966-4.02 3.725-6.312 5.24-2.753 1.82-5.993-1.42-4.173-4.173 1.515-2.291 3.274-4.408 5.24-6.311 1.196-1.158 1.196-3.093 0-4.251-1.966-1.904-3.724-4.02-5.24-6.311-1.82-2.753 1.42-5.993 4.173-4.173 2.291 1.515 4.407 3.274 6.311 5.24 1.158 1.196 3.093 1.196 4.251 0 1.904-1.966 4.02-3.725 6.312-5.24 2.754-1.822 5.994 1.418 4.174 4.171z" fill="#ff3c7d"/><path d="m466.523 165.784c-35.237-4.802-74.224-5.965-111.278-3.491-7.34.49-13.564-5.314-13.564-12.67 0-6.548 4.974-12.016 11.49-12.654 8.008-.784 16.149-1.33 24.343-1.638.176 8.872 7.423 16.009 16.337 16.009 8.905 0 16.146-7.124 16.336-15.983 17.661.694 35.067 2.494 51.406 5.399 1.534.266 3.002.709 4.386 1.308.217 7.843.398 15.757.544 23.72z" fill="#ffaee0"/><path d="m240.383 111.075c-1.006 7.385-7.269 12.922-14.722 12.925-.107 0-.214 0-.322 0-7.453-.002-13.715-5.54-14.722-12.925-1.616-11.858-2.474-24.279-2.474-37.075s.859-25.218 2.474-37.075c1.006-7.385 7.269-12.922 14.722-12.925h.322c7.453.002 13.715 5.54 14.722 12.925 1.616 11.858 2.474 24.279 2.474 37.075s-.859 25.218-2.474 37.075z" fill="#0a3575"/><path d="m264.681 16.663c6.136.624 10.816 5.783 10.819 11.95v.273c-.003 6.168-4.683 11.326-10.819 11.95-17.04 1.734-35.047 2.663-53.668 2.663s-36.628-.929-53.668-2.663c-6.136-.624-10.816-5.783-10.819-11.95 0-.091 0-.182 0-.273.003-6.168 4.683-11.326 10.819-11.95 17.041-1.734 35.047-2.663 53.669-2.663s36.627.929 53.667 2.663zm-2.106 59.598c7.385 1.006 12.922 7.269 12.925 14.722v.322c-.002 7.453-5.54 13.715-12.925 14.722-11.858 1.616-24.279 2.474-37.075 2.474s-25.218-.859-37.075-2.474c-7.385-1.006-12.922-7.269-12.925-14.722 0-.107 0-.214 0-.322.002-7.453 5.54-13.715 12.925-14.722 11.858-1.616 24.279-2.474 37.075-2.474s25.218.858 37.075 2.474z" fill="#0a4499"/><path d="m157.346 16.663c.621-.063 1.243-.125 1.866-.186.623.061 1.245.123 1.866.186 6.136.624 10.816 5.783 10.819 11.95v.273c-.003 6.168-4.683 11.326-10.819 11.95-.621.063-1.243.125-1.866.186-.623-.061-1.245-.123-1.866-.186-6.136-.624-10.816-5.782-10.819-11.95v-.273c.003-6.167 4.683-11.326 10.819-11.95z" fill="#0a3575"/><path d="m369 290c0 78.977-64.023 143-143 143s-143-64.023-143-143c0-52.422 28.208-98.256 70.274-123.151.52-16.542 1.193-32.758 2.012-48.591.479-9.276 6.085-16.942 13.568-18.5 18.015-3.752 37.014-5.758 56.646-5.758s38.631 2.006 56.646 5.757c7.483 1.558 13.089 9.224 13.568 18.5.809 15.643 1.476 31.659 1.993 47.994 42.629 24.755 71.293 70.905 71.293 123.749z" fill="#fff5f5"/><path d="m167.074 420.333c-49.581-22.452-84.074-72.364-84.074-130.333 0-52.422 28.208-98.256 70.274-123.151.52-16.542 1.193-32.758 2.012-48.591.479-9.276 6.085-16.942 13.568-18.5 14.969-3.117 30.618-5.028 46.744-5.586-5.229 3.782-8.773 10.567-9.175 18.34-.938 18.136-1.709 61.973-2.304 80.92-54.82 18.23-80.492 55.749-80.492 115.794 0 42.879 16.478 81.911 43.447 111.107z" fill="#d5f1fe"/><path d="m325 290c0 54.676-44.324 99-99 99s-99-44.324-99-99 44.324-99 99-99 99 44.324 99 99z" fill="#b4e7fd"/><path d="m313.384 336.57c-16.662 31.2-49.543 52.43-87.384 52.43-54.676 0-99-44.324-99-99 0-37.84 21.23-70.722 52.429-87.384-7.413 13.881-11.616 29.735-11.616 46.571 0 54.676 44.324 99 99 99 16.836 0 32.69-4.204 46.571-11.617z" fill="#93dcfc"/><path d="m226 394c-57.346 0-104-46.654-104-104s46.654-104 104-104 104 46.654 104 104-46.654 104-104 104zm0-198c-51.832 0-94 42.168-94 94s42.168 94 94 94 94-42.168 94-94-42.168-94-94-94zm21.699 58.24c0 .349-.005.696-.014 1.042-.655 24.106-36.99 24.106-37.645 0-.009-.346-.014-.694-.014-1.042 0-13.944 7.576-26.119 18.837-32.633 11.26 6.514 18.836 18.688 18.836 32.633zm29.19 43.084c0-2.761-2.239-5-5-5h-86.053c-2.761 0-5 2.239-5 5 0 2.761 2.239 5 5 5h86.053c2.761 0 5-2.239 5-5zm-23.994 21.278c0-2.761-2.239-5-5-5h-38.065c-2.761 0-5 2.239-5 5 0 2.761 2.239 5 5 5h38.066c2.761 0 4.999-2.239 4.999-5z" fill="#40c1fa"/><path d="m171.896 358.063c-.587 2.784-1.214 5.595-1.879 8.429-1.216 2.645-2.449 5.248-3.697 7.805-15.64-3.298-32.123-7.832-48.929-13.604-1.221-.42-2.437-.843-3.647-1.271-3.811 10.211-7.897 19.99-12.182 29.238-1.86 4.016-6.295 6.179-10.606 5.179-.028-.006-.057-.013-.085-.02-.646-.15-1.284-.369-1.887-.648-.026-.013-.053-.024-.079-.037-4.015-1.86-6.185-6.291-5.185-10.602 2.358-10.174 5.223-20.66 8.596-31.323-7.6-3.15-.924-22.586 7.007-20.401 3.891-10.485 8.073-20.519 12.464-29.995 1.86-4.015 6.295-6.179 10.605-5.179.028.007.057.013.085.02.646.15 1.284.369 1.886.648.026.012.053.024.079.036 4.015 1.86 6.185 6.292 5.185 10.603-2.302 9.929-5.086 20.156-8.353 30.554 1.218.407 2.437.819 3.659 1.238 16.807 5.772 32.597 12.323 46.963 19.33z" fill="#0a3575"/><path d="m78.769 219.162c7.462 1.764 15.001 3.62 22.61 5.567 7.199 3.139 14.288 6.307 21.259 9.5-6.14 34.187-15.407 70.042-27.898 106.41s-27.209 70.35-43.371 101.095c-7.462-1.764-15.001-3.62-22.61-5.567-7.199-3.139-14.288-6.307-21.259-9.5 6.14-34.187 15.407-70.042 27.898-106.41s27.21-70.35 43.371-101.095z" fill="#0956c6"/><path d="m78.769 219.162c3.645.862 7.31 1.746 10.991 2.651 3.461 1.548 6.895 3.101 10.301 4.661-6.14 34.188-15.407 70.042-27.898 106.41s-27.209 70.35-43.371 101.095c-3.645-.862-7.309-1.746-10.991-2.652-3.46-1.547-6.895-3.101-10.3-4.661 6.14-34.188 15.407-70.042 27.898-106.41s27.209-70.349 43.37-101.094z" fill="#2476ed"/><path d="m101.833 343.074c-12.345 35.944-27.09 70.313-43.825 102.149-1.592 3.03-5.034 4.597-8.364 3.809-7.472-1.767-15.124-3.651-22.742-5.6-.39-.1-.771-.23-1.139-.391-7.204-3.141-14.399-6.356-21.386-9.556-3.111-1.425-4.864-4.776-4.258-8.144 6.358-35.4 15.841-71.575 28.187-107.52s27.09-70.313 43.825-102.149c1.592-3.03 5.034-4.597 8.364-3.809 7.479 1.768 15.13 3.652 22.744 5.6.389.099.77.23 1.139.391 7.209 3.143 14.403 6.358 21.384 9.556 3.111 1.425 4.864 4.776 4.258 8.144-6.358 35.401-15.842 71.576-28.187 107.52zm-54.416 90.004c15.276-29.704 28.798-61.591 40.23-94.876s20.356-66.751 26.555-99.573c-5.029-2.274-10.142-4.546-15.266-6.784-5.415-1.383-10.844-2.732-16.213-4.028-15.276 29.704-28.798 61.591-40.23 94.876s-20.356 66.751-26.555 99.573c5.033 2.276 10.145 4.548 15.267 6.784 5.417 1.383 10.846 2.732 16.212 4.028z" fill="#0a4499"/><path d="m416.243 433.179c-.016.076-.033.151-.049.227-2.373 10.9-6.012 21.495-10.837 31.553-.033.07-.067.14-.1.209-1.603 3.34-5.278 5.166-8.898 4.378-40.428-8.79-82.857-20.603-126.078-35.447-12.221-4.198 9.216-63.176 20.381-59.341 43.221 14.844 83.954 31.594 121.252 49.5 3.339 1.603 5.117 5.302 4.329 8.921z" fill="#0a4499"/><path d="m293.076 375.59c17.28 5.976 25.686 25.55 18.105 42.188-.086.189-.172.377-.259.566-6.656 14.515-23.164 21.72-38.278 16.565-.788-.269-1.576-.538-2.364-.809-43.221-14.844-83.954-31.594-121.251-49.5-3.34-1.604-5.117-5.302-4.33-8.921.016-.076.033-.151.049-.227 2.373-10.9 6.012-21.495 10.837-31.553.034-.069.067-.139.101-.209 1.603-3.34 5.278-5.166 8.898-4.378 40.428 8.79 82.857 20.603 126.078 35.447.805.276 1.61.553 2.414.831z" fill="#0956c6"/><path d="m327.982 419.601c-.007.028-.013.057-.02.085-.15.646-.369 1.284-.648 1.887-.012.026-.024.053-.037.079-1.86 4.015-6.291 6.185-10.602 5.185-13.417-3.11-27.376-7.101-41.567-11.974-14.19-4.874-27.656-10.303-40.152-16.093-4.015-1.86-6.178-6.295-5.179-10.606.007-.028.013-.057.02-.085.15-.646.369-1.284.648-1.887.012-.026.024-.053.037-.079 1.86-4.015 6.291-6.185 10.602-5.185 13.417 3.11 27.376 7.101 41.567 11.974 14.19 4.874 27.656 10.303 40.152 16.093 4.016 1.86 6.179 6.295 5.179 10.606z" fill="#2476ed"/></g></svg>