<svg width="69" height="63" viewBox="0 0 69 63" fill="none" xmlns="http://www.w3.org/2000/svg">
<path fill-rule="evenodd" clip-rule="evenodd" d="M20.2031 0.187258C23.8687 0.0340469 25.0375 0 34.375 0C43.7125 0 44.8813 0.0368842 48.5438 0.187258C52.2063 0.337632 54.7062 0.868198 56.8937 1.63709C59.1844 2.42301 61.2625 3.65154 62.9812 5.24039C64.7312 6.79804 66.0813 8.68198 66.9438 10.7645C67.7938 12.7506 68.375 15.0204 68.5437 18.34C68.7125 21.6737 68.75 22.7349 68.75 31.2097C68.75 39.6874 68.7094 40.7485 68.5437 44.0766C68.3781 47.3962 67.7938 49.666 66.9438 51.6521C66.0812 53.7349 64.729 55.622 62.9812 57.1819C61.2625 58.7707 59.1844 59.9964 56.8937 60.7795C54.7062 61.5512 52.2062 62.079 48.55 62.2322C44.8812 62.3854 43.7125 62.4194 34.375 62.4194C25.0375 62.4194 23.8687 62.3825 20.2031 62.2322C16.5469 62.0818 14.0469 61.5512 11.8594 60.7795C9.56538 59.9963 7.48694 58.7686 5.76875 57.1819C4.01994 55.6233 2.66661 53.7371 1.80313 51.6549C0.95625 49.6688 0.375 47.399 0.20625 44.0795C0.0374999 40.7457 0 39.6846 0 31.2097C0 22.732 0.040625 21.6709 0.20625 18.3456C0.371875 15.0204 0.95625 12.7506 1.80313 10.7645C2.66788 8.68221 4.02225 6.79609 5.77187 5.23756C7.48763 3.65012 9.56398 2.42143 11.8563 1.63709C14.0438 0.868198 16.5438 0.34047 20.2 0.187258H20.2031ZM48.2656 5.80501C44.6406 5.65463 43.5531 5.62342 34.375 5.62342C25.1969 5.62342 24.1094 5.65463 20.4844 5.80501C17.1313 5.94403 15.3125 6.4519 14.1 6.88032C12.4969 7.44777 11.35 8.1202 10.1469 9.21254C9.00639 10.2199 8.12869 11.4463 7.57812 12.8017C7.10625 13.9025 6.54688 15.5538 6.39375 18.5982C6.22813 21.8894 6.19375 22.8767 6.19375 31.2097C6.19375 39.5427 6.22813 40.5301 6.39375 43.8213C6.54688 46.8656 7.10625 48.5169 7.57812 49.6178C8.12813 50.9711 9.00625 52.1997 10.1469 53.2069C11.2563 54.2425 12.6094 55.0398 14.1 55.5391C15.3125 55.9675 17.1313 56.4754 20.4844 56.6144C24.1094 56.7648 25.1938 56.796 34.375 56.796C43.5563 56.796 44.6406 56.7648 48.2656 56.6144C51.6187 56.4754 53.4375 55.9675 54.65 55.5391C56.2531 54.9717 57.4 54.2992 58.6031 53.2069C59.7438 52.1997 60.6219 50.9711 61.1719 49.6178C61.6438 48.5169 62.2031 46.8656 62.3563 43.8213C62.5219 40.5301 62.5562 39.5427 62.5562 31.2097C62.5562 22.8767 62.5219 21.8894 62.3563 18.5982C62.2031 15.5538 61.6438 13.9025 61.1719 12.8017C60.5469 11.3462 59.8063 10.3049 58.6031 9.21254C57.4935 8.17715 56.1428 7.38028 54.65 6.88032C53.4375 6.4519 51.6187 5.94403 48.2656 5.80501ZM29.9844 40.8308C32.4364 41.7576 35.1668 41.8826 37.7092 41.1847C40.2515 40.4867 42.4481 39.0091 43.9238 37.0041C45.3995 34.9991 46.0627 32.5911 45.8001 30.1914C45.5376 27.7918 44.3656 25.5493 42.4844 23.8471C41.2851 22.7589 39.835 21.9257 38.2385 21.4074C36.642 20.8892 34.9388 20.6987 33.2515 20.8498C31.5643 21.0009 29.9349 21.4898 28.4806 22.2813C27.0264 23.0727 25.7836 24.1471 24.8416 25.427C23.8996 26.7069 23.2818 28.1605 23.0329 29.6832C22.7839 31.2058 22.9098 32.7597 23.4017 34.2328C23.8935 35.706 24.739 37.0618 25.8773 38.2027C27.0155 39.3436 28.4182 40.2412 29.9844 40.8308ZM21.8813 19.8664C23.522 18.3768 25.4697 17.1951 27.6134 16.389C29.7571 15.5828 32.0547 15.1678 34.375 15.1678C36.6953 15.1678 38.9929 15.5828 41.1366 16.389C43.2803 17.1951 45.228 18.3768 46.8688 19.8664C48.5095 21.356 49.8109 23.1245 50.6989 25.0708C51.5868 27.017 52.0438 29.1031 52.0438 31.2097C52.0438 33.3164 51.5868 35.4024 50.6989 37.3487C49.8109 39.295 48.5095 41.0634 46.8688 42.553C43.5552 45.5615 39.0611 47.2516 34.375 47.2516C29.6889 47.2516 25.1948 45.5615 21.8813 42.553C18.5677 39.5446 16.7062 35.4643 16.7062 31.2097C16.7062 26.9551 18.5677 22.8748 21.8813 19.8664ZM55.9625 17.5569C56.3691 17.2087 56.6946 16.7899 56.9197 16.3254C57.1448 15.861 57.265 15.3602 57.2732 14.8528C57.2813 14.3454 57.1773 13.8416 56.9671 13.3714C56.757 12.9012 56.4451 12.474 56.0499 12.1152C55.6547 11.7563 55.1842 11.4731 54.6662 11.2824C54.1483 11.0916 53.5935 10.9971 53.0346 11.0045C52.4757 11.0119 51.9242 11.121 51.4126 11.3254C50.901 11.5298 50.4398 11.8253 50.0562 12.1945C49.3103 12.9124 48.902 13.866 48.9178 14.8528C48.9337 15.8396 49.3725 16.782 50.1411 17.4798C50.9098 18.1777 51.9477 18.5761 53.0346 18.5905C54.1215 18.6049 55.1718 18.2341 55.9625 17.5569Z" fill="white"/>
</svg>
