<svg width="66" height="44" viewBox="0 0 66 44" fill="none" xmlns="http://www.w3.org/2000/svg">
<path d="M60.9375 0.987305H4.6875C3.4443 0.987305 2.25201 1.43569 1.37294 2.23382C0.49386 3.03195 0 4.11444 0 5.24316V39.29C0 40.4188 0.49386 41.5013 1.37294 42.2994C2.25201 43.0975 3.4443 43.5459 4.6875 43.5459H60.9375C62.1807 43.5459 63.373 43.0975 64.2521 42.2994C65.1311 41.5013 65.625 40.4188 65.625 39.29V5.24316C65.625 4.11444 65.1311 3.03195 64.2521 2.23382C63.373 1.43569 62.1807 0.987305 60.9375 0.987305ZM55.7812 5.24316L32.8125 19.6705L9.84375 5.24316H55.7812ZM4.6875 39.29V7.17958L31.4766 24.0115C31.8689 24.2586 32.335 24.391 32.8125 24.391C33.29 24.391 33.7561 24.2586 34.1484 24.0115L60.9375 7.17958V39.29H4.6875Z" fill="white"/>
</svg>
